<svg width="32" height="32" viewBox="0 0 32 32" fill="none" xmlns="http://www.w3.org/2000/svg">
<rect width="32" height="32" rx="16" fill="white"/>
<path d="M23.4667 17.7333C23.4667 17.8866 23.4063 18.0335 23.2989 18.1419C23.1915 18.2502 23.0458 18.3111 22.8938 18.3111H21.7482V19.4667C21.7482 19.6199 21.6879 19.7668 21.5804 19.8752C21.473 19.9836 21.3273 20.0444 21.1754 20.0444C21.0235 20.0444 20.8778 19.9836 20.7703 19.8752C20.6629 19.7668 20.6026 19.6199 20.6026 19.4667V18.3111H19.4569C19.305 18.3111 19.1593 18.2502 19.0519 18.1419C18.9445 18.0335 18.8841 17.8866 18.8841 17.7333C18.8841 17.5801 18.9445 17.4331 19.0519 17.3248C19.1593 17.2164 19.305 17.1555 19.4569 17.1555H20.6026V16C20.6026 15.8467 20.6629 15.6998 20.7703 15.5914C20.8778 15.4831 21.0235 15.4222 21.1754 15.4222C21.3273 15.4222 21.473 15.4831 21.5804 15.5914C21.6879 15.6998 21.7482 15.8467 21.7482 16V17.1555H22.8938C23.0458 17.1555 23.1915 17.2164 23.2989 17.3248C23.4063 17.4331 23.4667 17.5801 23.4667 17.7333ZM9.719 11.9555H10.8646V13.1111C10.8646 13.2643 10.925 13.4113 11.0324 13.5196C11.1398 13.628 11.2855 13.6889 11.4375 13.6889C11.5894 13.6889 11.7351 13.628 11.8425 13.5196C11.9499 13.4113 12.0103 13.2643 12.0103 13.1111V11.9555H13.1559C13.3078 11.9555 13.4535 11.8947 13.561 11.7863C13.6684 11.678 13.7287 11.531 13.7287 11.3778C13.7287 11.2245 13.6684 11.0776 13.561 10.9692C13.4535 10.8609 13.3078 10.8 13.1559 10.8H12.0103V9.64443C12.0103 9.49119 11.9499 9.34423 11.8425 9.23588C11.7351 9.12752 11.5894 9.06665 11.4375 9.06665C11.2855 9.06665 11.1398 9.12752 11.0324 9.23588C10.925 9.34423 10.8646 9.49119 10.8646 9.64443V10.8H9.719C9.56708 10.8 9.42138 10.8609 9.31396 10.9692C9.20653 11.0776 9.14618 11.2245 9.14618 11.3778C9.14618 11.531 9.20653 11.678 9.31396 11.7863C9.42138 11.8947 9.56708 11.9555 9.719 11.9555ZM18.8841 20.6222H18.3113V20.0444C18.3113 19.8912 18.2509 19.7442 18.1435 19.6359C18.0361 19.5275 17.8904 19.4667 17.7385 19.4667C17.5866 19.4667 17.4409 19.5275 17.3334 19.6359C17.226 19.7442 17.1657 19.8912 17.1657 20.0444V20.6222H16.5928C16.4409 20.6222 16.2952 20.6831 16.1878 20.7914C16.0804 20.8998 16.02 21.0467 16.02 21.2C16.02 21.3532 16.0804 21.5002 16.1878 21.6085C16.2952 21.7169 16.4409 21.7778 16.5928 21.7778H17.1657V22.3555C17.1657 22.5088 17.226 22.6557 17.3334 22.7641C17.4409 22.8724 17.5866 22.9333 17.7385 22.9333C17.8904 22.9333 18.0361 22.8724 18.1435 22.7641C18.2509 22.6557 18.3113 22.5088 18.3113 22.3555V21.7778H18.8841C19.036 21.7778 19.1817 21.7169 19.2892 21.6085C19.3966 21.5002 19.4569 21.3532 19.4569 21.2C19.4569 21.0467 19.3966 20.8998 19.2892 20.7914C19.1817 20.6831 19.036 20.6222 18.8841 20.6222ZM21.4124 12.5333L11.4375 22.5946C11.2226 22.8111 10.9313 22.9328 10.6276 22.9328C10.3239 22.9328 10.0326 22.8111 9.81781 22.5946L8.33564 21.101C8.22923 20.9937 8.14482 20.8663 8.08723 20.7261C8.02964 20.5859 8 20.4356 8 20.2838C8 20.1321 8.02964 19.9818 8.08723 19.8416C8.14482 19.7014 8.22923 19.574 8.33564 19.4667L18.3113 9.40537C18.4177 9.29804 18.544 9.2129 18.683 9.15481C18.822 9.09672 18.971 9.06683 19.1215 9.06683C19.2719 9.06683 19.4209 9.09672 19.5599 9.15481C19.699 9.2129 19.8253 9.29804 19.9317 9.40537L21.4124 10.8989C21.5188 11.0062 21.6032 11.1336 21.6608 11.2738C21.7184 11.4141 21.748 11.5644 21.748 11.7161C21.748 11.8679 21.7184 12.0182 21.6608 12.1584C21.6032 12.2986 21.5188 12.426 21.4124 12.5333ZM20.6026 11.7165L19.1211 10.2222L16.8298 12.5333L18.3113 14.0276L20.6026 11.7165Z" fill="#2563EB"/>
</svg>
